<svg xmlns="http://www.w3.org/2000/svg" width="120" height="74" viewBox="0 0 120 74" fill="none">
  <path d="M18.0868 31.2725C17.627 31.4721 17.1793 31.6841 16.7439 31.9044C14.8027 32.8896 12.8657 32.9145 10.9326 31.8628C9.48796 31.0772 8.45431 30.0837 7.83167 28.8781C7.46542 28.159 7.11544 26.8911 6.78581 25.0662C6.50502 23.4908 6.21608 21.9236 5.91901 20.3606" stroke="#F8FAF9" stroke-width="1.24261"/>
  <path d="M109.012 24.0852C108.112 24.3222 106.859 24.7628 105.247 25.4071C104.633 25.6524 104.368 26.1055 104.45 26.7581" stroke="#F8FAF9" stroke-width="1.24261"/>
  <path d="M107.323 33.0725L95.3056 30.6199C95.1957 30.595 95.1224 30.4869 95.1469 30.3747L97.1938 19.7121" stroke="#F8FAF9" stroke-width="1.24261"/>
  <path d="M97.5235 33.0808L95.0899 31.5012C94.8091 31.3183 94.4307 31.418 94.276 31.7215L93.9667 32.3118" stroke="#F8FAF9" stroke-width="1.24261"/>
  <path d="M99.5582 48.7899L88.7659 41.96C88.5706 41.8353 88.5095 41.5734 88.6276 41.3739L93.5761 33.0309" stroke="#F8FAF9" stroke-width="1.24261"/>
  <path d="M90.7885 45.7595C89.8606 44.475 88.7253 43.9013 87.3823 44.0385" stroke="#F8FAF9" stroke-width="1.24261"/>
  <path d="M88.0049 60.396C87.3497 60.6953 86.784 61.0985 86.2998 61.6098C86.1126 61.8052 85.8033 61.7886 85.6364 61.5766L77.709 51.442" stroke="#F8FAF9" stroke-width="1.24261"/>
  <path d="M38.361 52.9551L28.9035 59.8182C28.7082 59.9637 28.5169 59.9595 28.3256 59.8057L23.1899 55.6737C23.0068 55.5241 22.9417 55.2705 23.0312 55.0502L27.528 44.2297" stroke="#F8FAF9" stroke-width="1.24261"/>
  <path d="M26.9827 43.4149C26.6042 43.4357 26.3031 43.5313 26.0793 43.7101C25.8066 43.9179 25.4159 43.8431 25.2409 43.5438L21.9731 37.9901C21.7819 37.6701 21.5255 37.5952 21.204 37.7698L20.9761 37.8904C20.5284 38.1315 20.4471 38.4682 20.7279 38.8964C22.083 40.9624 23.2347 42.8496 24.1829 44.5664C24.2358 44.662 24.2358 44.7576 24.1829 44.8532C24.1218 44.9572 24.0079 45.032 23.837 45.0694" stroke="#F8FAF9" stroke-width="1.24261"/>
  <path d="M22.0382 46.3788C21.8306 46.4911 21.6353 46.5534 21.4603 46.5659C21.322 46.5784 21.2162 46.5243 21.147 46.4038L17.5658 40.4926C17.4722 40.3388 17.2728 40.2931 17.1263 40.3928L16.4182 40.8792C16.2595 40.9873 16.2229 41.1078 16.3043 41.2367L19.918 47.1271C19.9912 47.2476 19.9994 47.3973 19.9343 47.522C19.8651 47.6592 19.7715 47.7714 19.6535 47.8504" stroke="#F8FAF9" stroke-width="1.24261"/>
  <path d="M18.4287 48.503C18.0502 48.8065 17.6392 49.0185 17.1997 49.1432C17.0654 49.1806 16.9636 49.139 16.8904 49.0185L11.2216 39.5906" stroke="#F8FAF9" stroke-width="1.24261"/>
  <path d="M49.4952 58.621L43.7124 56.6381C43.513 56.5716 43.3828 56.6381 43.3136 56.8377L43.0735 57.5277C43.0165 57.6981 43.102 57.8811 43.2689 57.9393L49.1127 59.9845" stroke="#F8FAF9" stroke-width="1.24261"/>
  <path d="M47.9732 63.4472L41.9707 61.3521C41.8445 61.3105 41.7102 61.377 41.6695 61.5059L41.3846 62.3705C41.3358 62.5202 41.3847 62.62 41.5271 62.674L47.6191 64.9437" stroke="#F8FAF9" stroke-width="1.24261"/>
  <path d="M46.3698 68.3399L36.2286 64.7483C36.0618 64.6901 35.9763 64.5072 36.0292 64.3368L39.122 54.7301" stroke="#F8FAF9" stroke-width="1.24261"/>
  <path d="M39.4557 53.8156L39.6226 53.5205" stroke="#F8FAF9" stroke-width="1.24261"/>
  <path d="M76.6184 66.0494C76.1993 66.1782 75.8005 66.3528 75.4138 66.5773C74.8889 66.8849 74.4982 67.0761 74.2418 67.151C72.4879 67.654 70.8275 67.4544 69.2567 66.5524C66.6644 65.0642 65.3947 62.8776 65.4558 59.9969C65.4761 58.9327 65.7813 57.9808 66.0825 56.9665" stroke="#F8FAF9" stroke-width="1.24261"/>
  <path d="M62.4728 69.4872L52.6572 69.3043C52.4252 69.3001 52.234 69.1048 52.238 68.8678L52.352 57.7106" stroke="#F8FAF9" stroke-width="1.24261"/>
  <path d="M15.4985 27.4399C16.0154 27.2279 16.3531 26.8745 16.5159 26.3799" stroke="#F8FAF9" stroke-width="1.24261"/>
  <path d="M16.6869 25.8519C16.8374 24.4926 16.7031 23.1582 16.284 21.8405C16.2392 21.7074 16.1537 21.6576 16.0195 21.6866L10.3628 22.888C10.2245 22.9171 10.135 23.0044 10.0983 23.1416C10.0169 23.4326 10.0739 23.7443 10.2652 24.081" stroke="#F8FAF9" stroke-width="1.24261"/>
  <path d="M101.608 22.6821C101.666 22.3975 101.487 22.1231 101.209 22.0637L100.834 21.9851C100.555 21.9278 100.287 22.1107 100.229 22.3929L99.4533 26.2532C99.3954 26.5378 99.5745 26.8122 99.8525 26.8716L100.227 26.9502C100.506 27.0075 100.775 26.8246 100.833 26.5424L101.608 22.6821Z" stroke="#F8FAF9" stroke-width="1.24261"/>
  <path d="M73.5012 62.516C74.6203 61.826 75.0883 60.9322 74.9051 59.839C74.7464 58.9037 74.2255 58.2427 73.3343 57.8561C72.1053 57.3282 71.0147 57.7688 70.0624 59.1863" stroke="#F8FAF9" stroke-width="1.24261"/>
  <path d="M18.0867 31.2726C17.6269 31.4721 17.1792 31.6841 16.7438 31.9044C14.8027 32.8896 12.8656 32.9146 10.9326 31.8629C9.48788 31.0772 8.45422 30.0837 7.83159 28.8782C7.46533 28.159 7.11536 26.8912 6.78573 25.0663C6.50493 23.4908 6.216 21.9236 5.91892 20.3606L5.72766 19.338C5.69917 19.1925 5.76022 19.1053 5.90265 19.072C10.1878 18.091 14.4812 17.2263 18.7786 16.4781C18.9006 16.4573 19.0146 16.5446 19.0349 16.6693C19.3971 18.9223 19.8285 21.2502 20.329 23.6571C20.9476 26.6584 20.4471 29.3271 18.0867 31.2726ZM10.2652 24.0811C10.3262 25.27 10.5582 26.1014 10.9529 26.5794C12.1615 28.0385 13.6795 28.3253 15.4985 27.4399C16.0154 27.2279 16.3531 26.8746 16.5159 26.3799L16.6868 25.8519C16.8374 24.4926 16.7031 23.1583 16.2839 21.8405C16.2392 21.7075 16.1537 21.6576 16.0194 21.6867L10.3628 22.8881C10.2245 22.9172 10.1349 23.0044 10.0983 23.1416C10.0169 23.4326 10.0739 23.7444 10.2652 24.0811Z" fill="#262626"/>
  <path d="M109.012 24.0852C108.112 24.3222 106.859 24.7628 105.247 25.4071C104.633 25.6524 104.368 26.1055 104.45 26.7581C104.324 27.0034 104.279 27.2528 104.311 27.4981C104.332 27.6311 104.405 27.7101 104.531 27.735L109.028 28.5955C109.199 28.6246 109.264 28.7285 109.227 28.899L108.328 32.9935C108.299 33.1307 108.214 33.1931 108.076 33.1723L107.323 33.0725L95.3056 30.6199C95.1957 30.595 95.1224 30.4869 95.1469 30.3747L97.1938 19.7121C98.0688 17.8581 99.5378 17.0642 101.593 17.3344C103.2 17.5464 104.36 18.6397 105.081 20.6225C105.162 20.8511 105.317 20.9218 105.54 20.8428L110.79 18.9348C110.957 18.8766 111.022 18.9348 110.994 19.1135L110.237 23.3536C110.2 23.5407 110.098 23.6695 109.923 23.736L109.012 24.0852ZM101.608 22.6821C101.666 22.3975 101.487 22.1232 101.209 22.0638L100.834 21.9851C100.555 21.9278 100.287 22.1107 100.229 22.3929L99.4533 26.2532C99.3954 26.5378 99.5745 26.8122 99.8525 26.8716L100.227 26.9502C100.506 27.0075 100.775 26.8246 100.833 26.5424L101.608 22.6821Z" fill="#262626"/>
  <path d="M95.2434 30.9243L106.951 33.3138L106.723 34.3477L97.639 32.7855L95.2594 31.2409C95.2594 31.2409 95.2593 31.2408 95.2593 31.2408C94.8816 30.9949 94.3914 31.0793 94.1122 31.4099C95.1302 26.3397 95.7994 23.1108 96.1288 21.7122C96.2326 21.2719 96.4275 20.8821 96.7181 20.5424L94.8423 30.3132C94.7829 30.5983 94.9702 30.8624 95.2368 30.9229L95.2368 30.9229L95.2434 30.9243Z" fill="#F8FAF9" stroke="#F8FAF9" stroke-width="0.621307"/>
  <path d="M5.9769 20.6661C6.25363 22.1278 6.52325 23.5934 6.78576 25.0663C7.11539 26.8911 7.46536 28.159 7.83162 28.8782L5.9769 20.6661ZM5.9769 20.6661C5.95762 20.5643 5.9383 20.4624 5.91895 20.3606L5.61622 20.4316C5.63557 20.5334 5.65488 20.6352 5.67416 20.737M5.9769 20.6661L5.67416 20.737M5.67416 20.737L4.67855 20.9704C5.15 23.0567 5.56131 25.2362 5.91259 27.5087" fill="#F8FAF9" stroke="#F8FAF9" stroke-width="0.621307"/>
  <path d="M15.881 26.5259C16.0238 26.539 16.1232 26.452 16.1459 26.4314C16.1569 26.4214 16.1672 26.411 16.1769 26.4004C16.104 26.573 16.0021 26.7221 15.868 26.8482C15.8745 26.74 15.8788 26.6325 15.881 26.5259ZM16.0104 22.0062C16.3226 23.0137 16.4628 24.0299 16.4316 25.0602C16.4306 25.06 16.4296 25.0598 16.4286 25.0595C16.4267 24.8996 16.4134 24.7397 16.3877 24.5794C16.3781 24.5112 16.3663 24.4449 16.3502 24.3904C16.3427 24.365 16.3288 24.3227 16.3032 24.2805C16.2902 24.2589 16.2047 24.1186 16.0225 24.1186C15.8444 24.1186 15.7584 24.2537 15.7452 24.2744L15.7451 24.2746C15.719 24.3155 15.7041 24.3567 15.6959 24.382C15.6787 24.4347 15.6651 24.4987 15.6536 24.5652C15.5569 24.2035 15.4296 23.8528 15.2715 23.5134L15.2715 23.5134L15.2697 23.5098C15.1856 23.3352 15.0622 23.1847 14.8873 23.0927C14.7114 23.0002 14.5172 22.9845 14.3251 23.0187L14.3251 23.0187L14.3233 23.019L10.4412 23.7329C10.3635 23.5349 10.3572 23.3694 10.3975 23.2253L10.3985 23.2218C10.4016 23.21 10.4048 23.2034 10.4064 23.2005C10.4071 23.1994 10.4075 23.1987 10.4078 23.1982C10.4081 23.1981 10.4084 23.1979 10.4088 23.1977C10.4108 23.1967 10.4163 23.1943 10.4268 23.1921L10.4274 23.1919L16.0104 22.0062ZM16.2865 24.5749C16.2865 24.5748 16.2865 24.5748 16.2865 24.5747C16.2869 24.5735 16.2872 24.5729 16.2872 24.5729C16.2872 24.5729 16.287 24.5736 16.2865 24.5749Z" fill="#F8FAF9" stroke="#F8FAF9" stroke-width="0.621307"/>
  <path d="M99.7577 26.3151L99.7578 26.3144L100.533 22.4551C100.533 22.4549 100.533 22.4548 100.533 22.4547C100.558 22.3348 100.667 22.2682 100.771 22.2893L101.145 22.3676C101.253 22.391 101.328 22.4998 101.304 22.6202L101.304 22.6209L100.528 26.4803C100.528 26.4804 100.528 26.4805 100.528 26.4807C100.503 26.6005 100.395 26.6672 100.29 26.646C100.29 26.646 100.29 26.6459 100.29 26.6459L99.9173 26.5678C99.9172 26.5678 99.917 26.5677 99.9169 26.5677C99.8086 26.5443 99.7332 26.4355 99.7577 26.3151Z" fill="#F8FAF9" stroke="#F8FAF9" stroke-width="0.621307"/>
  <path d="M104.765 26.3286C104.784 26.2364 104.815 26.1567 104.855 26.0875C104.945 25.9351 105.103 25.7994 105.363 25.6957L105.363 25.6956C106.726 25.1506 107.824 24.755 108.663 24.5058C108.631 24.7036 108.579 24.8863 108.509 25.0555L108.509 25.0564C108.492 25.0961 108.47 25.1194 108.419 25.138L104.765 26.3286Z" fill="#F8FAF9" stroke="#F8FAF9" stroke-width="0.621307"/>
  <path d="M97.5235 33.0808L93.8813 39.3079C93.7063 39.6031 93.7673 39.8359 94.0644 40.0021L94.4673 40.2266C94.7929 40.4095 95.0411 40.3347 95.2161 39.998C96.2497 38.0234 97.3485 35.945 98.7321 34.1866C98.8339 34.0577 98.9519 34.0369 99.0902 34.1242L101.666 35.787C101.784 35.8618 101.825 35.9699 101.792 36.1071C101.764 36.2235 101.699 36.3149 101.593 36.3815C101.508 36.4355 101.442 36.5103 101.39 36.5976L98.0118 42.3009C97.9915 42.3342 97.9996 42.3591 98.0281 42.3799L99.0455 43.0575C99.078 43.0824 99.1065 43.0783 99.1269 43.0409L102.899 36.9717C103.038 36.7514 103.209 36.7182 103.416 36.872C104.136 37.4124 104.897 37.8696 105.707 38.2438C106.021 38.3892 106.09 38.6096 105.919 38.913C105.54 39.5864 105.056 40.1518 104.694 40.8003C103.253 43.3817 101.674 46.0255 99.957 48.7275C99.9082 48.8024 99.7739 48.8231 99.5582 48.7899L88.7659 41.96C88.5706 41.8353 88.5095 41.5735 88.6276 41.3739L93.5761 33.031L93.9667 32.3118L94.276 31.7215C94.4307 31.4181 94.8091 31.3183 95.0899 31.5012L97.5235 33.0808Z" fill="#262626"/>
  <path d="M38.361 52.9551L28.9034 59.8182C28.7081 59.9637 28.5168 59.9595 28.3256 59.8057L23.1899 55.6737C23.0067 55.5241 22.9416 55.2705 23.0312 55.0502L27.5279 44.2297L28.1709 42.4755C28.2238 42.33 28.1831 42.2884 28.0448 42.3591C27.5483 42.6044 27.1943 42.9577 26.9826 43.4149C26.6042 43.4357 26.303 43.5313 26.0792 43.7101C25.8066 43.9179 25.4159 43.8431 25.2409 43.5438L21.9731 37.9902C21.7818 37.6701 21.5254 37.5952 21.2039 37.7698L20.9761 37.8904C20.5284 38.1315 20.447 38.4682 20.7278 38.8964C22.083 40.9624 23.2346 42.8496 24.1828 44.5664C24.2357 44.662 24.2357 44.7576 24.1828 44.8532C24.1218 44.9572 24.0078 45.032 23.8369 45.0694L22.0382 46.3788C21.8306 46.4911 21.6353 46.5534 21.4603 46.5659C21.322 46.5784 21.2162 46.5243 21.147 46.4038L17.5658 40.4926C17.4722 40.3388 17.2728 40.2931 17.1263 40.3929L16.4182 40.8792C16.2595 40.9873 16.2229 41.1079 16.3043 41.2367L19.918 47.1271C19.9912 47.2476 19.9994 47.3973 19.9343 47.522C19.8651 47.6592 19.7715 47.7714 19.6535 47.8504L18.4285 48.503C18.0501 48.8065 17.6391 49.0185 17.1996 49.1432C17.0653 49.1806 16.9635 49.139 16.8903 49.0185L11.2215 39.5906C10.9976 39.4576 10.8715 39.3037 10.843 39.125C10.8226 38.9961 10.8837 38.8714 10.9936 38.8049C12.719 37.8031 14.4079 36.7472 16.0642 35.6415C18.0379 34.3237 20.0726 33.2471 21.9812 31.8171C22.1806 31.6675 22.3393 31.7007 22.4574 31.921C24.1828 35.1468 26.3885 38.2895 28.0651 41.3988C28.4395 42.093 28.9116 42.6709 29.4813 43.1323C30.34 43.8306 31.1742 44.5041 31.9922 45.1525C32.1061 45.2398 32.1346 45.3521 32.0736 45.4851L27.996 54.6303C27.9024 54.8382 27.9552 54.8881 28.1506 54.78C28.8627 54.3768 29.4976 53.9153 30.047 53.3916C31.394 52.1112 32.9689 51.2092 34.3322 49.9746C34.8734 49.4841 35.435 49.0393 36.0169 48.636C36.139 48.5488 36.3018 48.5612 36.4157 48.661C37.25 49.4134 38.0802 50.1492 38.9022 50.8683C39.1627 51.097 39.5126 51.2092 39.7772 51.4254C39.9481 51.5667 39.9359 51.6872 39.7365 51.7828C39.0772 52.1196 38.6174 52.5103 38.361 52.9551Z" fill="#262626"/>
  <path d="M87.7389 42.5102C87.8903 42.2535 88.079 41.9966 88.2711 41.7398C88.309 41.9318 88.4216 42.1088 88.5987 42.2219L88.5998 42.2225L99.1672 48.9101C98.9462 49.3921 98.682 49.8121 98.3783 50.1699L91.0043 45.5283C90.0718 44.262 88.91 43.6347 87.5339 43.7148C87.4512 43.569 87.4291 43.4184 87.4476 43.2567C87.473 43.0347 87.5767 42.7851 87.7389 42.5102Z" fill="#F8FAF9" stroke="#F8FAF9" stroke-width="0.621307"/>
  <path d="M25.8182 44.1344C25.4177 44.4548 24.9694 44.7331 24.4726 44.9689C24.5589 44.7891 24.553 44.5938 24.4548 44.4162L25.8182 44.1344ZM25.8182 44.1344C25.4904 44.1662 25.1553 44.0124 24.973 43.7011C24.9729 43.7009 24.9728 43.7008 24.9728 43.7006L21.7065 38.1495C21.7063 38.1492 21.7061 38.149 21.7059 38.1487C21.6346 38.0296 21.578 38.0007 21.5515 37.993C21.5267 37.9859 21.4681 37.9799 21.3522 38.0428L21.3493 38.0445L21.3492 38.0444L21.1224 38.1644C20.9403 38.2627 20.8926 38.3482 20.8805 38.3973C20.8681 38.4479 20.8715 38.549 20.9876 38.726M25.8182 44.1344L24.4547 44.416C23.5018 42.6907 22.3459 40.7967 20.9876 38.726M20.9876 38.726L20.7279 38.8964L20.9876 38.726Z" fill="#F8FAF9" stroke="#F8FAF9" stroke-width="0.621307"/>
  <path d="M16.624 49.1786L16.6248 49.1798C16.6862 49.2809 16.7765 49.3759 16.9055 49.4281C17.0353 49.4806 17.167 49.4747 17.2829 49.4425L17.2843 49.4421C17.4331 49.3998 17.5788 49.3485 17.7212 49.2879L15.8812 50.5492C15.881 50.5493 15.8809 50.5494 15.8807 50.5495C15.8606 50.5632 15.8457 50.5708 15.8359 50.575C15.8278 50.567 15.8156 50.5529 15.8 50.5291C15.0168 49.3057 14.2892 48.0907 13.5636 46.8793L13.5268 46.8178C12.7895 45.5869 12.0535 44.3594 11.2669 43.1386L11.2665 43.138C10.7607 42.3569 10.3043 41.544 9.89376 40.703L11.1115 40.0105L16.624 49.1786ZM15.8475 50.5845C15.8474 50.5845 15.8471 50.5843 15.8463 50.5838L15.8475 50.5845Z" fill="#F8FAF9" stroke="#F8FAF9" stroke-width="0.621307"/>
  <path d="M21.5386 46.8705L20.1834 47.7151C20.1929 47.6982 20.202 47.681 20.2108 47.6637C20.3277 47.4379 20.3098 47.1735 20.1835 46.9658L20.1828 46.9646L16.6029 41.1293L17.2985 40.6515C17.2989 40.652 17.2996 40.6527 17.3004 40.654C17.3004 40.654 17.3005 40.6541 17.3005 40.6541L20.8797 46.562C20.9389 46.6638 21.0228 46.7527 21.1354 46.8108C21.2481 46.869 21.369 46.8856 21.4852 46.8756C21.5029 46.8743 21.5207 46.8726 21.5386 46.8705ZM22.726 46.2209C22.958 46.2583 22.9742 46.3373 22.7748 46.4661L22.622 46.2209C22.6231 46.2182 22.6243 46.2157 22.6255 46.2132C22.6605 46.2131 22.6941 46.2157 22.726 46.2209Z" fill="#F8FAF9" stroke="#F8FAF9" stroke-width="0.621307"/>
  <path d="M87.3822 44.0385C88.7252 43.9013 89.8605 44.475 90.7884 45.7595C92.1191 47.5511 92.0459 49.3594 90.5646 51.1801C89.3234 52.7057 88.0089 53.9237 86.6131 54.8341C86.373 54.9879 86.3445 55.1791 86.5235 55.4036L89.2257 58.7582C89.3234 58.8788 89.2949 59.0575 89.1687 59.1406C88.656 59.4857 88.2694 59.9014 88.0048 60.396C87.3497 60.6953 86.784 61.0986 86.2997 61.6099C86.1125 61.8052 85.8032 61.7886 85.6364 61.5766L77.709 51.442L77.6357 51.3007C77.5666 51.1635 77.5869 51.0471 77.7009 50.9473C79.3165 49.5381 80.9687 48.1747 82.6575 46.8528C84.0493 45.7636 85.4207 44.0053 87.3822 44.0385ZM83.3941 51.4212L83.8824 52.0115C83.9842 52.1321 84.1632 52.1487 84.2853 52.0448L86.5398 50.091C87.134 49.5755 87.4514 48.9562 87.2439 48.7067L87.134 48.5737C86.9264 48.3243 86.2753 48.5405 85.6812 49.0559L83.4267 51.0097C83.3046 51.1136 83.2924 51.3007 83.3941 51.4212Z" fill="#262626"/>
  <path d="M24.7458 50.0645C24.7898 49.9698 24.8528 49.8351 24.9347 49.6603L23.363 53.4422C23.7829 52.3791 24.2205 51.3056 24.673 50.2232L24.6765 50.2147L24.689 50.1871C24.7016 50.1597 24.7204 50.119 24.7458 50.0645ZM22.3933 55.7395C22.492 55.5422 22.5937 55.3388 22.6899 55.1291C22.6466 55.4214 22.7579 55.7219 22.9933 55.9143L22.9952 55.9158L28.1309 60.0477L28.1309 60.0478C28.2649 60.1555 28.4246 60.2308 28.6063 60.2348C28.6264 60.2352 28.6463 60.2347 28.666 60.2335C28.196 60.5852 27.7242 60.9273 27.2377 61.2516L27.2377 61.2515L27.2366 61.2522C27.2352 61.2512 27.2337 61.25 27.2322 61.2487L27.2309 61.2477L21.9084 56.9456C21.9083 56.9456 21.9083 56.9455 21.9083 56.9455C21.8934 56.9334 21.8859 56.9243 21.8823 56.9192C21.879 56.9145 21.8784 56.9122 21.8783 56.9118L21.8783 56.9118C21.8782 56.9114 21.8774 56.9088 21.8779 56.9022C21.8783 56.8953 21.8803 56.8826 21.8871 56.8634L21.8875 56.8622C22.0126 56.5085 22.1793 56.168 22.3584 55.8094C22.37 55.7862 22.3816 55.7629 22.3933 55.7395Z" fill="#F8FAF9" stroke="#F8FAF9" stroke-width="0.621307"/>
  <mask id="path-37-inside-1_67_116" fill="white">
    <path d="M85.5958 49.7543C85.5591 49.7917 85.5144 49.8167 85.4615 49.8291C85.3841 49.8458 85.3679 49.8208 85.4208 49.7543C85.6324 49.4799 85.8603 49.3885 86.1085 49.4758C86.1858 49.5049 86.198 49.6088 86.1329 49.6545C86.0475 49.7169 85.9539 49.7294 85.8521 49.692C85.7504 49.6545 85.6649 49.6753 85.5958 49.7543Z"/>
  </mask>
  <path d="M85.5958 49.7543C85.5591 49.7917 85.5144 49.8167 85.4615 49.8291C85.3841 49.8458 85.3679 49.8208 85.4208 49.7543C85.6324 49.4799 85.8603 49.3885 86.1085 49.4758C86.1858 49.5049 86.198 49.6088 86.1329 49.6545C86.0475 49.7169 85.9539 49.7294 85.8521 49.692C85.7504 49.6545 85.6649 49.6753 85.5958 49.7543Z" fill="#F8FAF9"/>
  <path d="M85.5958 49.7543L86.0397 50.1889L86.0518 50.1766L86.0631 50.1637L85.5958 49.7543ZM85.4615 49.8291L85.5921 50.4367L85.604 50.4339L85.4615 49.8291ZM85.4208 49.7543L85.9071 50.1411L85.9127 50.1338L85.4208 49.7543ZM86.1085 49.4758L86.3274 48.8942L86.3146 48.8897L86.1085 49.4758ZM86.1329 49.6545L85.7758 49.146L85.7667 49.1526L86.1329 49.6545ZM85.1518 49.3197C85.2007 49.2697 85.2619 49.2378 85.3189 49.2244L85.604 50.4339C85.7669 50.3955 85.9175 50.3138 86.0397 50.1889L85.1518 49.3197ZM85.3308 49.2217C85.3364 49.2205 85.3914 49.2079 85.4706 49.215C85.5323 49.2205 85.7839 49.2559 85.9318 49.5148C86.0731 49.7622 85.9872 49.9873 85.9685 50.0329C85.941 50.0996 85.9091 50.1384 85.907 50.1411L84.9345 49.3675C84.906 49.4034 84.8563 49.4703 84.8194 49.5599C84.7912 49.6283 84.7043 49.8711 84.8528 50.131C85.0077 50.4024 85.2746 50.445 85.3595 50.4526C85.4618 50.4618 85.5479 50.4461 85.5921 50.4365L85.3308 49.2217ZM85.9127 50.1338C85.9434 50.094 85.9665 50.0716 85.9801 50.0603C85.9933 50.0493 85.9947 50.051 85.9837 50.0555C85.9713 50.0605 85.9529 50.065 85.9322 50.0652C85.9121 50.0654 85.9012 50.0615 85.9024 50.0619L86.3146 48.8897C86.059 48.7998 85.7834 48.7962 85.5181 48.9034C85.2683 49.0043 85.0762 49.1837 84.9288 49.3748L85.9127 50.1338ZM85.8897 50.0573C85.5042 49.9122 85.4285 49.39 85.7759 49.1461L86.49 50.163C86.9676 49.8276 86.8674 49.0976 86.3273 48.8943L85.8897 50.0573ZM85.7667 49.1526C85.7975 49.1302 85.8487 49.1038 85.9166 49.0948C85.9837 49.0858 86.0368 49.0979 86.0666 49.1088L85.6377 50.2751C85.9286 50.3821 86.241 50.3448 86.4991 50.1564L85.7667 49.1526ZM86.0666 49.1088C85.9271 49.0575 85.7527 49.0301 85.5649 49.0758C85.3753 49.1219 85.2306 49.2283 85.1284 49.3449L86.0631 50.1637C86.0301 50.2014 85.9627 50.2579 85.8586 50.2832C85.7562 50.3081 85.6754 50.289 85.6377 50.2751L86.0666 49.1088Z" fill="#F8FAF9" mask="url(#path-37-inside-1_67_116)"/>
  <path d="M85.3923 61.7687C85.4848 61.8863 85.6038 61.9685 85.7333 62.0143L84.5592 63.0663C83.6969 62.0491 82.9428 61.0702 82.2999 60.1256L82.299 60.1244C81.9459 59.6109 81.5706 59.1336 81.1728 58.7016L81.1727 58.7015C80.4299 57.8956 79.8114 57.019 79.1687 56.1082C79.0338 55.9171 78.8978 55.7245 78.7595 55.5307L78.7591 55.5302C78.4026 55.0328 78.0009 54.6003 77.6157 54.1854C77.6016 54.1703 77.5875 54.1551 77.5735 54.14C77.1723 53.7078 76.7903 53.2919 76.4615 52.8157C76.4557 52.8062 76.454 52.7956 76.4555 52.7861C76.4571 52.7765 76.4612 52.7715 76.4651 52.7686L76.4651 52.7687L76.4676 52.7667L77.6523 51.8738L85.3917 61.768L85.3923 61.7687Z" fill="#F8FAF9" stroke="#F8FAF9" stroke-width="0.621307"/>
  <path d="M49.4953 58.621L43.7125 56.6382C43.5131 56.5716 43.3829 56.6382 43.3137 56.8377L43.0736 57.5277C43.0166 57.6982 43.1021 57.8811 43.2689 57.9393L49.1127 59.9845C49.4057 60.0427 49.6458 60.1674 49.829 60.3545C49.9266 60.4542 49.9429 60.5665 49.8819 60.6953C49.4546 61.5558 49.1086 62.4911 48.8441 63.4971C48.8075 63.6509 48.7139 63.7008 48.5674 63.6509L47.9733 63.4472L41.9707 61.3521C41.8446 61.3105 41.7103 61.3771 41.6696 61.5059L41.3847 62.3706C41.3359 62.5202 41.3847 62.62 41.5272 62.674L47.6192 64.9437C47.7942 64.9562 47.9488 65.0019 48.0831 65.0726C48.2093 65.1391 48.25 65.2388 48.2093 65.376L47.3221 68.2817C47.2774 68.4355 47.1756 68.4979 47.021 68.4688L46.3699 68.3399L36.2287 64.7483C36.0618 64.6901 35.9764 64.5072 36.0293 64.3368L39.1221 54.7301L39.4558 53.8156L39.6226 53.5205L40.2534 51.7746C40.3104 51.6207 40.4121 51.575 40.5627 51.6291L51.355 55.441C51.4975 55.4908 51.5422 55.5865 51.4934 55.732L50.5126 58.5878C50.4516 58.7665 50.3417 58.8122 50.1749 58.7291C49.9999 58.6376 49.772 58.6002 49.4953 58.621Z" fill="#262626"/>
  <path d="M76.6184 66.0494C76.1993 66.1783 75.8005 66.3529 75.4138 66.5774C74.8889 66.885 74.4982 67.0762 74.2418 67.151C72.4879 67.654 70.8275 67.4545 69.2567 66.5524C66.6644 65.0643 65.3947 62.8777 65.4558 59.997C65.4761 58.9328 65.7813 57.9808 66.0825 56.9666C68.4672 53.0341 73.0617 51.9325 76.7405 54.6844C77.7864 55.4617 78.5392 56.555 79.0032 57.9642C79.7641 60.2755 79.3246 63.3682 77.4079 65.164C77.1027 65.4508 76.8422 65.746 76.6184 66.0494ZM70.0625 59.1864C69.8183 59.7101 69.745 60.1383 69.8427 60.4667C70.4165 62.3913 71.6373 63.0731 73.5012 62.5161C74.6203 61.826 75.0883 60.9323 74.9052 59.839C74.7464 58.9037 74.2255 58.2427 73.3343 57.8561C72.1053 57.3282 71.0147 57.7688 70.0625 59.1864Z" fill="#262626"/>
  <mask id="path-42-inside-2_67_116" fill="white">
    <path d="M39.6225 53.5205L39.4557 53.8156C39.4272 53.6618 39.2074 53.7325 38.8005 54.0318C38.7395 53.8115 38.7557 53.6452 38.8453 53.5371C38.9144 53.4581 39.0365 53.429 39.2156 53.4581C39.3417 53.4789 39.4801 53.4997 39.6225 53.5205Z"/>
  </mask>
  <path d="M39.6225 53.5205L39.4557 53.8156C39.4272 53.6618 39.2074 53.7325 38.8005 54.0318C38.7395 53.8115 38.7557 53.6452 38.8453 53.5371C38.9144 53.4581 39.0365 53.429 39.2156 53.4581C39.3417 53.4789 39.4801 53.4997 39.6225 53.5205Z" fill="#F8FAF9"/>
  <path d="M39.6225 53.5205L40.1634 53.8262L40.6098 53.0367L39.7122 52.9057L39.6225 53.5205ZM39.4557 53.8156L38.8448 53.9288L39.1559 55.6085L39.9965 54.1214L39.4557 53.8156ZM38.8005 54.0318L38.2017 54.1977L38.4424 55.0664L39.1686 54.5323L38.8005 54.0318ZM38.8453 53.5371L38.3779 53.1277L38.3722 53.1342L38.3668 53.1408L38.8453 53.5371ZM39.2156 53.4581L39.3166 52.8451L39.3152 52.8449L39.2156 53.4581ZM39.0817 53.2147L38.9148 53.5099L39.9965 54.1214L40.1634 53.8262L39.0817 53.2147ZM40.0666 53.7025C40.028 53.4941 39.8867 53.2503 39.5951 53.153C39.3729 53.0789 39.1726 53.1319 39.0765 53.1634C38.8663 53.2323 38.6419 53.3772 38.4324 53.5313L39.1686 54.5323C39.2594 54.4655 39.3317 54.4175 39.3869 54.3848C39.4457 54.35 39.4688 54.3425 39.4636 54.3442C39.4599 54.3454 39.4364 54.353 39.3978 54.3564C39.3599 54.3598 39.2885 54.3607 39.2019 54.3318C39.1081 54.3005 39.0162 54.2403 38.9464 54.1509C38.8804 54.0664 38.8547 53.9826 38.8448 53.9288L40.0666 53.7025ZM39.3992 53.8659C39.3821 53.8041 39.3864 53.7857 39.3851 53.7995C39.3843 53.8079 39.3815 53.8268 39.3718 53.852C39.3619 53.8779 39.3462 53.9064 39.3237 53.9335L38.3668 53.1408C38.0851 53.4808 38.1194 53.9003 38.2017 54.1977L39.3992 53.8659ZM39.3126 53.9465C39.2461 54.0224 39.1687 54.0538 39.1224 54.0639C39.084 54.0724 39.0759 54.0649 39.1159 54.0714L39.3152 52.8449C39.0591 52.8032 38.6593 52.8065 38.3779 53.1277L39.3126 53.9465ZM39.1146 54.0712C39.2464 54.0929 39.3893 54.1143 39.5328 54.1353L39.7122 52.9057C39.5709 52.8851 39.437 52.8649 39.3166 52.8451L39.1146 54.0712Z" fill="#F8FAF9" mask="url(#path-42-inside-2_67_116)"/>
  <path d="M35.5042 63.2061C36.069 61.704 36.5557 60.2175 37.037 58.7475C37.3775 57.7076 37.7153 56.676 38.0761 55.653C38.1653 55.3985 38.3266 55.0276 38.5564 54.5404C38.5513 54.6004 38.5581 54.6664 38.5865 54.7345C38.6196 54.8137 38.6712 54.8701 38.7266 54.9103M35.5042 63.2061C35.1949 64.0333 34.8978 64.9312 34.617 65.8998C34.5722 66.0411 34.617 66.1409 34.7513 66.2033M35.5042 63.2061L35.7949 63.3155C35.795 63.3154 35.795 63.3153 35.795 63.3152M35.5042 63.2061L35.7951 63.3149C35.7951 63.315 35.7951 63.3151 35.795 63.3152M34.7513 66.2033C35.4716 66.5317 36.2204 66.8351 36.9977 67.1136M34.7513 66.2033L34.8569 65.9758L34.8595 65.9701L34.8809 65.9241C34.8866 65.9301 34.8943 65.9401 34.9009 65.9551C34.9058 65.9661 34.9085 65.9763 34.9098 65.9847C34.9102 65.9876 34.9105 65.9904 34.9107 65.9928C34.9108 65.9948 34.9109 65.9965 34.9109 65.9981C34.9109 66.0015 34.9106 66.0033 34.9106 66.0033C34.9106 66.0033 34.9111 66.0002 34.9132 65.9936L34.9133 65.9936L34.9154 65.9863C34.9196 65.9717 34.9239 65.957 34.9281 65.9424M34.7513 66.2033L34.8552 65.9753L34.8578 65.9696L34.8793 65.9224C34.8753 65.9183 34.8726 65.9165 34.8726 65.9165C34.8726 65.9165 34.8751 65.9182 34.8814 65.9211C34.8969 65.9282 34.9125 65.9353 34.9281 65.9424M36.9977 67.1136C39.8423 68.1321 42.6624 69.1006 45.4622 70.011M36.9977 67.1136L37.1025 66.8212M36.9977 67.1136L37.1024 66.8212C37.1024 66.8212 37.1024 66.8212 37.1025 66.8212M45.4622 70.011C45.5721 70.0443 45.6901 70.0027 45.7512 69.9071C46.0238 69.4748 46.2314 68.951 46.3697 68.3399M45.4622 70.011L45.535 69.7707L45.4884 69.7414C45.4968 69.728 45.5052 69.7146 45.5135 69.701M45.4622 70.011L45.5394 69.7736L45.751 69.907L45.5399 69.7722L45.5583 69.7156C45.5434 69.7107 45.5284 69.7059 45.5135 69.701M46.3697 68.3399L36.2285 64.7483M46.3697 68.3399L46.0668 68.2713C46.0461 68.3627 46.0238 68.4518 46 68.5385M46.3697 68.3399L46.266 68.6328L46 68.5385M36.2285 64.7483C36.0617 64.6901 35.9762 64.5072 36.0291 64.3368L39.0266 55.0262L38.9025 54.9926L38.8993 54.9918L38.8993 54.9917C38.852 54.9784 38.7922 54.9557 38.7356 54.9166M36.2285 64.7483L36.1248 65.0412L36.1254 65.0414C35.7902 64.9239 35.6335 64.5635 35.7324 64.2447L35.7334 64.2416L35.7334 64.2416L38.7356 54.9166M36.2285 64.7483L36.1262 65.0417L46 68.5385M38.7356 54.9166L38.7627 54.8323C38.7504 54.8587 38.7384 54.8847 38.7266 54.9103M38.7356 54.9166C38.7326 54.9145 38.7296 54.9124 38.7266 54.9103M38.7266 54.9103C38.5581 55.2758 38.439 55.5566 38.3693 55.7557L38.3691 55.7563C38.0139 56.7633 37.6773 57.7908 37.3368 58.8304C36.8525 60.309 36.3602 61.8121 35.795 63.3152M46 68.5385C45.877 68.9874 45.7132 69.3745 45.5135 69.701M45.5135 69.701C42.7317 68.7959 39.9294 67.8333 37.1025 66.8212M37.1025 66.8212C36.3503 66.5516 35.6255 66.2587 34.9281 65.9424M34.9281 65.9424C35.2031 64.9977 35.4934 64.122 35.795 63.3152M45.5522 69.7137L45.5354 69.7693L45.4893 69.7399C45.5062 69.7135 45.5344 69.7083 45.5522 69.7137Z" fill="#F8FAF9" stroke="#F8FAF9" stroke-width="0.621307"/>
  <path d="M62.4728 69.4872L52.6572 69.3043C52.4252 69.3002 52.234 69.1048 52.238 68.8678L52.352 57.7106L52.4741 55.7278C52.4863 55.5657 52.5717 55.4867 52.7345 55.4908L56.8366 55.574C56.979 55.5781 57.0482 55.653 57.0482 55.7985L56.9017 65.5298C56.8976 65.6712 56.9668 65.7418 57.1052 65.7418L63.7263 65.8208C63.8768 65.825 63.9541 65.904 63.9501 66.0578L63.8931 69.1921C63.889 69.3958 63.7914 69.4955 63.592 69.4914L62.4728 69.4872Z" fill="#262626"/>
  <path d="M43.3715 57.646L43.3712 57.6459L43.3699 57.6454L43.3697 57.6452C43.3695 57.6451 43.3689 57.6444 43.3681 57.6429C43.3668 57.64 43.3655 57.6348 43.3679 57.6271L43.607 56.9397L43.6071 56.9394C43.6081 56.9366 43.6091 56.934 43.61 56.9315C43.611 56.9318 43.6121 56.9321 43.6131 56.9325L49.1168 58.8197L48.9029 59.5819L43.3715 57.646Z" fill="#F8FAF9" stroke="#F8FAF9" stroke-width="0.621307"/>
  <path d="M69.102 66.8218C70.7463 67.766 72.4934 67.9756 74.3275 67.4496L74.3289 67.4492C74.5499 67.3847 74.8391 67.2522 75.1901 67.0612C74.3113 67.8197 73.4077 68.3089 72.4809 68.5416C71.1341 68.8798 69.7001 68.686 68.1653 67.9283C66.8505 67.2789 65.9006 66.4015 65.2966 65.3052C64.1073 63.1409 64.1025 60.4283 65.369 58.3601C65.245 58.8837 65.1561 59.4217 65.1452 59.9907C65.1137 61.4798 65.4264 62.8042 66.0926 63.9527C66.7584 65.1007 67.7673 66.0555 69.102 66.8218ZM69.102 66.8218L69.2567 66.5524L69.102 66.8218ZM75.9978 66.2802C75.7995 66.3674 75.6052 66.4663 75.4139 66.5773C74.8889 66.885 74.4983 67.0762 74.2419 67.151L75.9978 66.2802ZM75.9978 66.2802C75.8399 66.4496 75.6812 66.6099 75.5216 66.7611L75.9978 66.2802ZM75.5705 66.8457C75.7701 66.7298 75.973 66.628 76.1803 66.5397C73.7402 69.1292 71.0215 69.6849 68.0278 68.2069C66.6645 67.5334 65.6634 66.6148 65.0245 65.455C63.648 62.9503 63.7869 59.7249 65.6016 57.4947L75.5705 66.8457Z" fill="#F8FAF9" stroke="#F8FAF9" stroke-width="0.621307"/>
  <path d="M62.1474 69.7919L52.6516 69.615C52.6515 69.615 52.6515 69.615 52.6514 69.615C52.2486 69.6076 51.921 69.2717 51.9274 68.8638L51.9274 68.8647L52.238 68.8679L51.9274 68.8626L62.1474 69.7919ZM62.1474 69.7919L62.0977 70.8384L51.2674 70.7291C51.2817 66.4526 51.375 62.1961 51.5432 57.9516L51.5433 57.951C51.5484 57.8144 51.5961 57.7135 51.6855 57.6296L51.6855 57.6296L51.6863 57.6288C51.7274 57.59 51.7534 57.5798 51.763 57.5772C51.7691 57.5756 51.7767 57.5741 51.7943 57.5803C51.8383 57.5958 51.9231 57.6528 52.0403 57.8086L62.1474 69.7919Z" fill="#F8FAF9" stroke="#F8FAF9" stroke-width="0.621307"/>
  <path d="M72.1342 58.3255C72.1249 58.3255 72.116 58.3258 72.1079 58.3264C72.1003 58.3255 72.0891 58.3236 72.0734 58.3195C71.8122 58.2332 71.5388 58.2469 71.2608 58.3329C71.4107 58.2245 71.5611 58.1406 71.7114 58.0796C72.1688 57.894 72.6616 57.9055 73.2112 58.1414C74.0076 58.487 74.458 59.0614 74.5988 59.8907C74.6803 60.3774 74.6157 60.8043 74.4164 61.1845C74.2839 61.4371 74.0869 61.6787 73.8179 61.9068C73.7808 60.9357 73.5098 60.1585 72.9578 59.6241C72.6781 59.3534 72.3392 59.1575 71.9473 59.03C72.0488 59.0066 72.1466 58.9759 72.24 58.9374L72.24 58.9374L72.2462 58.9347C72.2576 58.9297 72.2817 58.9189 72.307 58.9024C72.3168 58.8959 72.3484 58.8751 72.3787 58.8389C72.3972 58.8168 72.5062 58.6771 72.4199 58.501C72.3831 58.426 72.3267 58.3854 72.292 58.366C72.2571 58.3464 72.2259 58.3378 72.2085 58.3338C72.174 58.3258 72.1456 58.3255 72.1342 58.3255ZM70.7097 58.8468C70.7448 58.8064 70.78 58.7674 70.8152 58.73C70.8147 58.7502 70.8161 58.7716 70.8199 58.794C70.8233 58.8139 70.8282 58.8323 70.8343 58.8494C70.7931 58.8481 70.7516 58.8472 70.7097 58.8468Z" fill="#F8FAF9" stroke="#F8FAF9" stroke-width="0.621307"/>
  <path d="M41.9421 61.6712L47.6064 63.6482L47.3978 64.5297L41.6998 62.4068L41.9421 61.6712Z" fill="#F8FAF9" stroke="#F8FAF9" stroke-width="0.621307"/>
</svg>